<svg data-name="Group 178" xmlns="http://www.w3.org/2000/svg" width="30.047" height="29.326" viewBox="0 0 30.047 29.326">
    <defs>
        <clipPath id="lfg3j4td1a">
            <path data-name="Rectangle 43" style="fill:#868686" d="M0 0h30.047v29.326H0z"/>
        </clipPath>
    </defs>
    <g data-name="Group 175" style="clip-path:url(#lfg3j4td1a)">
        <path data-name="Path 36" d="M168.206 253.58h-.455v4.552h10.926v-4.552h-10.471zm8.517 2.6a.456.456 0 1 1 .133-.321.459.459 0 0 1-.133.321" transform="translate(-151.362 -228.806)" style="fill:#868686"/>
        <path data-name="Path 37" d="M12.774 23.864c.032-1.083-.051-3.371-.111-3.851a20.021 20.021 0 0 0-2.385-5.971C8.8 11.471 7.285 10 6.132 10a1.315 1.315 0 0 0-.233.021c-.059.01-.115.023-.168.037a.72.72 0 0 0-.417.4c-.273.637-.058 2.206 2.522 6.063l.164.238a.455.455 0 1 1-.761.5l-.159-.239c-1.581-2.364-3.306-5.288-2.6-6.928.015-.035.032-.07.051-.106a.454.454 0 0 1 .029-.221 16.755 16.755 0 0 0 1.106-7.596C5.524 1.39 4.8 0 3.87 0a1.01 1.01 0 0 0-.254.034C2.978.2 1.861 2.171.921 6.095.134 9.377-.2 12.684.123 13.959A10.316 10.316 0 0 0 2.259 18a9.107 9.107 0 0 1 2.308 5.866h8.207z" transform="translate(0 -.001)" style="fill:#868686"/>
        <path data-name="Path 38" d="M29.359 253.58h-1.39v4.552h10.926v-4.552h-9.536zm1.208 2.6a.452.452 0 0 1-.321.134.457.457 0 1 1 .321-.134" transform="translate(-25.237 -228.806)" style="fill:#868686"/>
        <path data-name="Path 39" d="M188.588 6.094c-.941-3.923-2.057-5.892-2.7-6.06a1.006 1.006 0 0 0-.249-.034c-.933 0-1.654 1.389-1.795 2.166a16.757 16.757 0 0 0 1.108 7.6.455.455 0 0 1 .029.221c.018.036.036.072.051.106.7 1.641-1.021 4.565-2.6 6.929l-.159.239a.455.455 0 0 1-.761-.5l.164-.246c2.58-3.857 2.8-5.426 2.522-6.063a.72.72 0 0 0-.418-.4 1.864 1.864 0 0 0-.163-.036 1.323 1.323 0 0 0-.237-.022c-1.153 0-2.664 1.475-4.146 4.046a20.025 20.025 0 0 0-2.385 5.969c-.06.482-.144 2.77-.111 3.853h8.207A9.105 9.105 0 0 1 187.25 18a10.316 10.316 0 0 0 2.136-4.039c.325-1.275-.011-4.582-.8-7.864" transform="translate(-159.462)" style="fill:#868686"/>
    </g>
</svg>
