<svg xmlns="http://www.w3.org/2000/svg" width="20" height="27" viewBox="0 0 20 27">
    <defs>
        <clipPath id="tyl322v7sa">
            <path data-name="Rectangle 42" style="fill:#868686" d="M0 0h20v27H0z"/>
        </clipPath>
    </defs>
    <g data-name="Group 174">
        <g data-name="Group 173" style="clip-path:url(#tyl322v7sa)">
            <path data-name="Path 35" d="M19.609 7.183a1.58 1.58 0 0 0-.24-.418L13.625.48a1.587 1.587 0 0 0-.459-.336A1.4 1.4 0 0 0 12.515 0H1.556A1.6 1.6 0 0 0 0 1.638v22.974a1.658 1.658 0 0 0 1.556 1.707h16.662a1.631 1.631 0 0 0 1.522-1.707V7.882a1.694 1.694 0 0 0-.13-.7m-16.32.645c0-.1.123-.144.233-.144h4.852c.11 0 .192.041.192.144v.74a.209.209 0 0 1-.192.212H3.523a.256.256 0 0 1-.233-.212zm0 8.773c0-.1.123-.144.233-.144H11.9c.11 0 .164.041.164.144v.74c0 .1-.048.212-.164.212H3.523a.256.256 0 0 1-.233-.212zm10.966 5.127c0 .1-.048.212-.164.212H3.523a.256.256 0 0 1-.233-.212v-.74c0-.1.123-.144.233-.144h10.569c.11 0 .164.041.164.144zm2.193-8.773c0 .1-.048.212-.164.212H3.523a.256.256 0 0 1-.233-.212v-.74c0-.1.123-.144.233-.144h12.762c.11 0 .164.041.164.144zm-3.214-5.2a.8.8 0 0 1-.761-.774V2.454l4.88 5.3z" transform="translate(0 .181)" style="fill:#868686"/>
        </g>
    </g>
</svg>
