<svg id="Group_456" data-name="Group 456" xmlns="http://www.w3.org/2000/svg" xmlns:xlink="http://www.w3.org/1999/xlink" width="28" height="28" viewBox="0 0 28 28">
  <defs>
    <clipPath id="clip-path">
      <rect id="Rectangle_89" data-name="Rectangle 89" width="28" height="28" fill="#db0053"/>
    </clipPath>
  </defs>
  <g id="Group_456-2" data-name="Group 456" clip-path="url(#clip-path)">
    <path id="Path_167" data-name="Path 167" d="M169.878,1.667V13.778h-1.025V2a.855.855,0,0,0-.82-.889h-14.3L154.746,0h13.593a1.607,1.607,0,0,1,1.538,1.667" transform="translate(-145.323)" fill="#db0053"/>
    <path id="Path_168" data-name="Path 168" d="M63.755,99.35v8.345H62.73v-7.223Z" transform="translate(-59.299 -93.917)" fill="#db0053"/>
    <path id="Path_169" data-name="Path 169" d="M68.723,0V4.813A1.673,1.673,0,0,1,67.13,6.554h-4.4l1.025-1.121,3.951-4.32Z" transform="translate(-59.299)" fill="#db0053"/>
    <path id="Path_170" data-name="Path 170" d="M246.1,307.679a2.053,2.053,0,0,0-.6-.076H245v2.558h.578q.19,0,.3-.01a.92.92,0,0,0,.223-.051.607.607,0,0,0,.2-.116,1.393,1.393,0,0,0,.383-1.115,1.644,1.644,0,0,0-.168-.836.748.748,0,0,0-.416-.353" transform="translate(-231.602 -290.78)" fill="#db0053"/>
    <path id="Path_171" data-name="Path 171" d="M181.2,307h-.514v1.152h.514a1.529,1.529,0,0,0,.451-.055.529.529,0,0,0,.277-.185.556.556,0,0,0,.1-.337.572.572,0,0,0-.147-.406A.968.968,0,0,0,181.2,307" transform="translate(-170.808 -290.211)" fill="#db0053"/>
    <path id="Path_172" data-name="Path 172" d="M26.814,272.25H1.186A1.15,1.15,0,0,0,0,273.361v4.222a1.151,1.151,0,0,0,1.186,1.111H26.814A1.15,1.15,0,0,0,28,277.584v-4.222a1.151,1.151,0,0,0-1.186-1.111m-15.177,3.332a1.62,1.62,0,0,1-1.057.3h-.7v1.067a.494.494,0,0,1-.109.347.353.353,0,0,1-.273.118.357.357,0,0,1-.278-.116.5.5,0,0,1-.1-.343v-2.9a.476.476,0,0,1,.115-.36.528.528,0,0,1,.368-.109h.979a2.579,2.579,0,0,1,.668.067,1.008,1.008,0,0,1,.4.213.958.958,0,0,1,.255.365,1.279,1.279,0,0,1,.088.486,1.07,1.07,0,0,1-.352.874m4.156.49a1.816,1.816,0,0,1-.183.5,1.558,1.558,0,0,1-.316.4,1.309,1.309,0,0,1-.331.219,1.494,1.494,0,0,1-.387.116,2.954,2.954,0,0,1-.467.033h-.992a.624.624,0,0,1-.314-.063.294.294,0,0,1-.137-.177,1.134,1.134,0,0,1-.032-.3v-2.764a.494.494,0,0,1,.109-.357.481.481,0,0,1,.357-.109H14.1a2.677,2.677,0,0,1,.666.072,1.221,1.221,0,0,1,.5.27,1.908,1.908,0,0,1,.588,1.531,3.008,3.008,0,0,1-.058.619Zm3.252-1.986a.39.39,0,0,1-.271.081h-1.5v.964h1.258a.379.379,0,0,1,.261.078.274.274,0,0,1,.086.209.263.263,0,0,1-.087.208.383.383,0,0,1-.26.077H17.271v1.241a.491.491,0,0,1-.109.351.387.387,0,0,1-.547,0l0,0a.5.5,0,0,1-.107-.349v-2.9a.631.631,0,0,1,.049-.268.3.3,0,0,1,.153-.151.641.641,0,0,1,.266-.048h1.8a.39.39,0,0,1,.276.078.3.3,0,0,1,0,.424l0,0Z" transform="translate(0 -257.361)" fill="#db0053"/>
    <path id="Path_173" data-name="Path 173" d="M83.481,400.25a.536.536,0,0,0-.513.556v3.555a.855.855,0,0,1-.82.889H64.716a.856.856,0,0,1-.82-.889v-3.555a.514.514,0,1,0-1.025,0v3.889a1.607,1.607,0,0,0,1.538,1.667H82.455a1.607,1.607,0,0,0,1.538-1.667v-3.889a.534.534,0,0,0-.512-.556" transform="translate(-59.432 -378.361)" fill="#db0053"/>
  </g>
</svg>
