<?xml version="1.0" encoding="utf-8"?>
<!-- Generator: Adobe Illustrator 27.1.1, SVG Export Plug-In . SVG Version: 6.00 Build 0)  -->
<svg version="1.1" id="Layer_1" xmlns="http://www.w3.org/2000/svg" xmlns:xlink="http://www.w3.org/1999/xlink" x="0px" y="0px"
	 viewBox="0 0 16.4 25.4" style="enable-background:new 0 0 16.4 25.4;" xml:space="preserve">
<style type="text/css">
	.st0{enable-background:new    ;}
	.st1{fill:#868686;}
</style>
<g class="st0">
	<path class="st1" d="M0,6h8.3C8.2,5.5,8,5.1,7.8,4.8S7.3,4.1,6.9,3.9S6,3.4,5.4,3.3S4.2,3.1,3.4,3.1H0l0-2.9h16.4v2.9h-5.3
		c0.3,0.4,0.6,0.8,0.8,1.3s0.4,1,0.4,1.6h4v2.9h-4.1c-0.3,1.3-0.9,2.4-1.9,3.3S8.2,13.7,6.7,14v0.1c0.4,0.2,0.8,0.4,1.1,0.7
		s0.7,0.5,1,0.9s0.6,0.7,0.9,1.1s0.6,0.9,1,1.4l4.7,7.2h-4.7l-4-6.5c-0.4-0.6-0.8-1.2-1.1-1.7S5,16.4,4.6,16.1s-0.8-0.6-1.3-0.7
		s-1-0.2-1.7-0.2H0v-3.1h3.3c0.6,0,1.2-0.1,1.7-0.2s1-0.4,1.5-0.7s0.8-0.6,1.1-1s0.5-0.8,0.6-1.3H0V6z"/>
</g>
</svg>
