<svg data-name="Group 170" xmlns="http://www.w3.org/2000/svg" xmlns:xlink="http://www.w3.org/1999/xlink" width="248.364" height="144.547" viewBox="0 0 248.364 144.547">
    <defs>
        <clipPath id="1khg4p0qoc">
            <path data-name="Rectangle 29" style="fill:none" d="M0 0h248.364v144.547H0z"/>
        </clipPath>
        <clipPath id="tvbdqqblcd">
            <path data-name="Path 19" d="M60.776 67.957q-7.3 7.359-14.715 23.743-4.544 9.93-8.552 17.1a98.969 98.969 0 0 1-7 11.124 34.288 34.288 0 0 1-5.859 6.219 15.647 15.647 0 0 1-4.9 2.87 15.576 15.576 0 0 1-4.427.6 2.384 2.384 0 0 1-1.557-.6 3.3 3.3 0 0 0-.834-.6c-.4 0-.741.321-1.018.959a5.954 5.954 0 0 0-.419 2.392q0 3.586 3.408 7.3a10.622 10.622 0 0 0 8.074 3.708q5.382 0 10.286-4.365a42.876 42.876 0 0 0 8.792-11.362q3.888-7 7.535-15.431t7.058-16.924q3.408-8.491 6.757-15.428a46.541 46.541 0 0 1 7.357-11.3q4-4.364 8.074-4.365.833 0 .358-1.076-.717-1.921-3.468-1.921-7.654 0-14.95 7.354M38.827 50.018a59.921 59.921 0 0 0-16.8 7.413A59.965 59.965 0 0 0 10 67.837a41.78 41.78 0 0 0-7.536 11.9A31.369 31.369 0 0 0 .014 91.46a19.256 19.256 0 0 0 5.5 13.936q5.5 5.681 12.319 5.681a18.77 18.77 0 0 0 14.053-6.04q5.8-6.039 5.8-11.782a4.125 4.125 0 0 0-2.273-3.947q-1.556-.956-1.556.239 0 3.59-3.948 7.836t-8.849 4.245a6.772 6.772 0 0 1-5.741-2.691 11.713 11.713 0 0 1-2.028-7.237 29.168 29.168 0 0 1 1.852-9.749 39.922 39.922 0 0 1 5.8-10.465 50.416 50.416 0 0 1 9.388-9.508 45.1 45.1 0 0 1 13.4-6.937 52.828 52.828 0 0 1 17.047-2.692q12.8 0 18.838 5.8t6.04 15.012a26.8 26.8 0 0 1-7.835 19.556q-7.835 7.954-20.035 7.953-1.073 0-.358 1.675 1.2 2.87 4.783 2.87a43.007 43.007 0 0 0 17.584-3.647 32.933 32.933 0 0 0 13.456-10.7 26.326 26.326 0 0 0 5.2-16.03q0-12.558-10.946-20.093t-27.568-7.54a76.774 76.774 0 0 0-21.111 2.813" transform="translate(-.014 -47.205)" style="fill:none"/>
        </clipPath>
        <clipPath id="4qzhc00qbe">
            <path data-name="Path 20" d="M121.955 109.248q4.781-5.384 8.611-5.382a1.473 1.473 0 0 1 1.079.358q1.552 1.916-1.317 6.579-4.785 8.016-15.787 10.885a39.036 39.036 0 0 1 7.414-12.439m-5.68-5.263a34.706 34.706 0 0 0-10.347 11.6A27.912 27.912 0 0 0 102.1 129.1a18.619 18.619 0 0 0 3.529 11.664q3.526 4.605 10.585 4.6a41.871 41.871 0 0 0 4.786-.234 27.68 27.68 0 0 0 5.562-1.5 27.131 27.131 0 0 0 6.578-3.409 44.324 44.324 0 0 0 6.938-6.46 71.8 71.8 0 0 0 7.592-10.286.594.594 0 0 0 0-.716l-2.388-2.751c-.24-.24-.441-.2-.6.12a50.569 50.569 0 0 1-7.478 9.388 30.07 30.07 0 0 1-7.6 5.621 34.01 34.01 0 0 1-6.158 2.393 19.208 19.208 0 0 1-4.726.658 4.9 4.9 0 0 1-4.424-2.212 10.264 10.264 0 0 1-1.437-5.682 19.21 19.21 0 0 1 .48-4.186 39.761 39.761 0 0 0 11.363-2.392 32.394 32.394 0 0 0 11-6.579q4.9-4.421 4.9-9.807a6.792 6.792 0 0 0-2.93-6.041q-2.934-1.973-8.077-1.972a22.684 22.684 0 0 0-13.334 4.664" transform="translate(-102.1 -99.321)" style="fill:none"/>
        </clipPath>
        <clipPath id="wj72lpahxg">
            <path data-name="Path 21" d="M172.893 69.051a1.225 1.225 0 0 0-1.2.838l-32.057 68.655a.769.769 0 0 0 .059.657.591.591 0 0 0 .54.3h9.565a1.154 1.154 0 0 0 1.079-.719l12.082-25.955a37.276 37.276 0 0 1 7.839-9.327q4-3.231 6.4-3.23 3.947.6-2.033 14.474a108.6 108.6 0 0 0-4.246 10.107 19.343 19.343 0 0 0-.9 5.92 9.082 9.082 0 0 0 2.151 6.4 7.587 7.587 0 0 0 5.861 2.332 20.382 20.382 0 0 0 4.906-.537 19 19 0 0 0 5.2-2.453 29.386 29.386 0 0 0 6.7-6.4 106.094 106.094 0 0 0 7.953-11.544.592.592 0 0 0 0-.716l-2.511-2.751c-.24-.24-.439-.24-.6 0a73.949 73.949 0 0 1-9.749 12.8q-5.2 5.383-7.6 5.384-1.675 0-1.673-2.154a19.456 19.456 0 0 1 1.793-6.278q1.793-4.368 6.7-14.774a18.387 18.387 0 0 0 1.437-6.816A7.513 7.513 0 0 0 188.2 97.7a8.863 8.863 0 0 0-6.461-2.333 32.325 32.325 0 0 0-3.766.18 16.391 16.391 0 0 0-4.066 1.255 17.593 17.593 0 0 0-4.964 3.23l13.994-30.023a.746.746 0 0 0-.062-.658.585.585 0 0 0-.537-.3z" transform="translate(-139.593 -69.051)" style="fill:none"/>
        </clipPath>
        <clipPath id="6d0hpjckbi">
            <path data-name="Path 22" d="M227.467 109.248q4.781-5.384 8.61-5.382a1.471 1.471 0 0 1 1.077.358q1.554 1.916-1.315 6.579-4.784 8.016-15.789 10.885a39.042 39.042 0 0 1 7.416-12.439m-5.683-5.263a34.758 34.758 0 0 0-10.346 11.6 27.936 27.936 0 0 0-3.827 13.515 18.63 18.63 0 0 0 3.529 11.664q3.527 4.605 10.582 4.6a41.9 41.9 0 0 0 4.788-.239 27.665 27.665 0 0 0 5.56-1.5 27.086 27.086 0 0 0 6.578-3.409 44.214 44.214 0 0 0 6.94-6.46 71.74 71.74 0 0 0 7.593-10.286.6.6 0 0 0 0-.716l-2.391-2.751c-.24-.24-.439-.2-.6.12a50.6 50.6 0 0 1-7.475 9.388 30.129 30.129 0 0 1-7.6 5.621 33.949 33.949 0 0 1-6.16 2.393 19.2 19.2 0 0 1-4.724.658 4.906 4.906 0 0 1-4.427-2.212 10.264 10.264 0 0 1-1.435-5.682 19.155 19.155 0 0 1 .478-4.186 39.765 39.765 0 0 0 11.365-2.392 32.38 32.38 0 0 0 11-6.579q4.906-4.421 4.906-9.807a6.785 6.785 0 0 0-2.931-6.041q-2.933-1.973-8.074-1.972a22.693 22.693 0 0 0-13.337 4.664" transform="translate(-207.611 -99.321)" style="fill:none"/>
        </clipPath>
        <clipPath id="5dozh23d8k">
            <path data-name="Path 23" d="M279.252 69.051a1.228 1.228 0 0 0-1.2.838Q260 108.641 256.647 116.714t-3.347 12.738a10.482 10.482 0 0 0 2.57 7.059 7.981 7.981 0 0 0 6.278 2.99 17.9 17.9 0 0 0 4.845-.537 14.528 14.528 0 0 0 4.485-2.573 31.627 31.627 0 0 0 5.743-6.279q3.11-4.249 7.534-11.544a.52.52 0 0 0-.118-.716q-2.155-2.393-2.513-2.751c-.161-.24-.359-.24-.6 0a99.765 99.765 0 0 1-9.569 13.216q-3.711 4.007-6.46 4.007-1.675 0-1.673-2.153 0-3.947 3.527-12.2t22.067-47.963a.455.455 0 0 0 .048-.206v-.012a.866.866 0 0 0-.106-.378.577.577 0 0 0-.54-.36z" transform="translate(-253.299 -69.051)" style="fill:none"/>
        </clipPath>
        <clipPath id="kl8fyfkxbm">
            <path data-name="Path 24" d="M230.871 37.5c18.943-3 28.821 31.99 3.763 38.462 0 0 20.725-4.672 25.929-22.75 2.415-8.388-2.149-15.544-8.665-17.575a19.242 19.242 0 0 0-5.857-.954c-4.215 0-8.154 1.485-15.17 2.816" transform="translate(-230.871 -34.68)" style="fill:none"/>
        </clipPath>
        <clipPath id="woopiecown">
            <path data-name="Path 25" d="M231.286 68.056c-12.6-1.512-12.516 5.558-12.212 7.189.834 4.479 6.373 7.3 15.313 5.316.308-.07.914-.255 1.634-.5a16.633 16.633 0 0 0 11.285-13.7c-3.048 1.383-8.146 2.638-16.019 1.693" transform="translate(-218.993 -66.363)" style="fill:none"/>
        </clipPath>
        <clipPath id="16wb11a2ip">
            <path data-name="Path 26" d="M244.375 56.7c-.456-11.836-9.368-20.177-17.72-19.069-18.689 2.479-28.1-1.522-28.1-1.522 7.561 22.942 36.266 27.645 45.823 20.591" transform="translate(-198.552 -36.11)" style="fill:none"/>
        </clipPath>
        <clipPath id="jm66s0oljr">
            <path data-name="Path 27" d="M259.327 23.963c-3.472 1.952-6.061 5.8-7.7 8.9a21.106 21.106 0 0 1 3.639.812A13.354 13.354 0 0 1 264.31 43.9c.363-4.075-.283-9.021.4-12.786a7.935 7.935 0 0 1 7.231-6.888 17.294 17.294 0 0 0-7.066-1.634 11.194 11.194 0 0 0-5.545 1.376" transform="translate(-251.627 -22.587)" style="fill:none"/>
        </clipPath>
        <linearGradient id="lvw3bepusa" y1="1.099" x2=".008" y2="1.099" gradientUnits="objectBoundingBox">
            <stop offset="0" stop-color="#fcaf6a"/>
            <stop offset=".545" stop-color="#e34658"/>
            <stop offset="1" stop-color="#db0053"/>
        </linearGradient>
        <linearGradient id="xgwfnqtxpf" x1="-1.87" y1="1.332" x2="-1.852" y2="1.332" xlink:href="#lvw3bepusa"/>
        <linearGradient id="23wwkkvdxh" x1="-1.844" y1="1.231" x2="-1.831" y2="1.231" xlink:href="#lvw3bepusa"/>
        <linearGradient id="p0r9z6lfhj" x1="-3.803" y1="1.332" x2="-3.785" y2="1.332" xlink:href="#lvw3bepusa"/>
        <linearGradient id="wtxxs0qikl" x1="-5.867" y1="1.231" x2="-5.844" y2="1.231" xlink:href="#lvw3bepusa"/>
        <linearGradient id="9jniewybyb" x1="-4.243" y1="3.161" x2="-4.224" y2="3.161" gradientUnits="objectBoundingBox">
            <stop offset="0" stop-color="#003072"/>
            <stop offset=".125" stop-color="#004385"/>
            <stop offset=".475" stop-color="#0074b9"/>
            <stop offset=".739" stop-color="#0093d9"/>
            <stop offset=".885" stop-color="#009fe5"/>
            <stop offset="1" stop-color="#009fe5"/>
        </linearGradient>
        <linearGradient id="hwn5hwj9co" x1="-5.674" y1="3.942" x2="-5.647" y2="3.942" xlink:href="#9jniewybyb"/>
        <linearGradient id="7zxljj8azq" x1="-3.381" y1="3.557" x2="-3.364" y2="3.557" xlink:href="#lvw3bepusa"/>
        <linearGradient id="hy0q2coaus" x1="-10.378" y1="5.896" x2="-10.337" y2="5.896" xlink:href="#9jniewybyb"/>
    </defs>
    <g data-name="Group 149">
        <g data-name="Group 148" style="clip-path:url(#1khg4p0qoc)">
            <path data-name="Path 1" d="m118.621 168.325-.832 2.517h-1.067l2.718-8h1.247l2.729 8h-1.1l-.854-2.517zm2.622-.807-.783-2.3c-.178-.522-.3-1-.416-1.459h-.023c-.12.474-.25.961-.4 1.448l-.784 2.314z" transform="translate(-18.941 -26.425)" style="fill:#2e2e2d"/>
            <path data-name="Path 2" d="M130.317 169.558a3.658 3.658 0 0 0 1.851.522c1.056 0 1.673-.557 1.673-1.365 0-.747-.426-1.174-1.507-1.589-1.305-.463-2.112-1.14-2.112-2.268a2.3 2.3 0 0 1 2.587-2.171 3.645 3.645 0 0 1 1.768.391l-.285.843a3.2 3.2 0 0 0-1.52-.379c-1.092 0-1.507.653-1.507 1.2 0 .747.487 1.115 1.59 1.542 1.353.523 2.042 1.175 2.042 2.35 0 1.234-.914 2.3-2.8 2.3a4.134 4.134 0 0 1-2.042-.51z" transform="translate(-21.105 -26.4)" style="fill:#2e2e2d"/>
            <path data-name="Path 3" d="M139.575 163.721h-2.433v-.878h5.922v.878h-2.445v7.121h-1.044z" transform="translate(-22.255 -26.425)" style="fill:#2e2e2d"/>
            <path data-name="Path 4" d="M150.125 167.092h-3.109v2.883h3.465v.866h-4.5v-8h4.319v.866h-3.286v2.527h3.109z" transform="translate(-23.689 -26.425)" style="fill:#2e2e2d"/>
            <path data-name="Path 5" d="M153.664 162.927a11.978 11.978 0 0 1 1.982-.155 3.287 3.287 0 0 1 2.243.664 2.153 2.153 0 0 1 .7 1.674 2.353 2.353 0 0 1-.617 1.709 3.312 3.312 0 0 1-2.444.878 3.59 3.59 0 0 1-.83-.07v3.2h-1.033zm1.033 3.857a3.5 3.5 0 0 0 .854.083c1.246 0 2.006-.606 2.006-1.709 0-1.056-.748-1.567-1.887-1.567a4.313 4.313 0 0 0-.973.083z" transform="translate(-24.936 -26.414)" style="fill:#2e2e2d"/>
            <path data-name="Path 6" d="M166.385 163.721h-2.433v-.878h5.922v.878h-2.445v7.121h-1.044z" transform="translate(-26.605 -26.425)" style="fill:#2e2e2d"/>
            <path data-name="Path 7" d="M179.155 166.734c0 2.754-1.674 4.213-3.714 4.213-2.113 0-3.6-1.637-3.6-4.058 0-2.54 1.578-4.2 3.714-4.2 2.183 0 3.6 1.673 3.6 4.046m-6.207.131c0 1.709.926 3.24 2.552 3.24s2.563-1.507 2.563-3.323c0-1.59-.83-3.251-2.552-3.251s-2.563 1.578-2.563 3.334" transform="translate(-27.886 -26.4)" style="fill:#2e2e2d"/>
            <path data-name="Path 8" d="m184.049 170.842-2.03-8h1.092l.949 4.046c.237 1 .451 1.995.593 2.766h.024c.131-.8.379-1.745.653-2.777l1.067-4.035h1.081l.973 4.059c.225.949.439 1.9.558 2.741h.023c.166-.878.391-1.768.641-2.764l1.056-4.035h1.056l-2.266 8h-1.08l-1.009-4.165a23.909 23.909 0 0 1-.522-2.61h-.024a25.033 25.033 0 0 1-.617 2.61l-1.14 4.165z" transform="translate(-29.537 -26.425)" style="fill:#2e2e2d"/>
            <path data-name="Path 9" d="m195.949 168.325-.832 2.517h-1.067l2.718-8h1.247l2.729 8h-1.1l-.854-2.517zm2.622-.807-.783-2.3c-.178-.522-.3-1-.415-1.459h-.023c-.12.474-.25.961-.4 1.448l-.784 2.314z" transform="translate(-31.489 -26.425)" style="fill:#2e2e2d"/>
            <path data-name="Path 10" d="M204.153 162.94a10.713 10.713 0 0 1 1.982-.167 3.273 3.273 0 0 1 2.315.653 1.994 1.994 0 0 1 .628 1.519 2.1 2.1 0 0 1-1.507 2.042v.035a1.992 1.992 0 0 1 1.174 1.614 12.772 12.772 0 0 0 .617 2.195h-1.068a10.356 10.356 0 0 1-.534-1.91c-.238-1.1-.665-1.519-1.6-1.555h-.973v3.465h-1.033zm1.033 3.642h1.056c1.1 0 1.8-.6 1.8-1.519 0-1.033-.748-1.484-1.84-1.5a4.278 4.278 0 0 0-1.02.095z" transform="translate(-33.129 -26.414)" style="fill:#2e2e2d"/>
            <path data-name="Path 11" d="M212.484 162.939a14.717 14.717 0 0 1 2.2-.167 4.58 4.58 0 0 1 3.239 1 3.684 3.684 0 0 1 1.128 2.872 4.228 4.228 0 0 1-1.151 3.109 4.926 4.926 0 0 1-3.536 1.151 16.873 16.873 0 0 1-1.876-.094zm1.033 7.072a6.479 6.479 0 0 0 1.044.059 3.075 3.075 0 0 0 3.406-3.394c.012-1.887-1.056-3.085-3.239-3.085a5.867 5.867 0 0 0-1.211.106z" transform="translate(-34.481 -26.414)" style="fill:#2e2e2d"/>
            <path data-name="Path 12" d="M222.41 169.558a3.66 3.66 0 0 0 1.851.522c1.056 0 1.673-.557 1.673-1.365 0-.747-.426-1.174-1.507-1.589-1.305-.463-2.112-1.14-2.112-2.268a2.3 2.3 0 0 1 2.587-2.171 3.645 3.645 0 0 1 1.768.391l-.285.843a3.2 3.2 0 0 0-1.52-.379c-1.092 0-1.507.653-1.507 1.2 0 .747.487 1.115 1.59 1.542 1.353.523 2.042 1.175 2.042 2.35 0 1.234-.914 2.3-2.8 2.3a4.134 4.134 0 0 1-2.042-.51z" transform="translate(-36.049 -26.4)" style="fill:#2e2e2d"/>
            <path data-name="Path 13" d="M239.535 170.556a5.124 5.124 0 0 1-2.113.379 3.737 3.737 0 0 1-3.952-4.046 3.98 3.98 0 0 1 4.177-4.2 4.286 4.286 0 0 1 1.9.356l-.25.843a3.753 3.753 0 0 0-1.613-.333 2.974 2.974 0 0 0-3.121 3.3 2.907 2.907 0 0 0 3.074 3.216 4.111 4.111 0 0 0 1.685-.333z" transform="translate(-37.886 -26.4)" style="fill:#2e2e2d"/>
            <path data-name="Path 14" d="M244 162.843v3.347h3.869v-3.347h1.045v8h-1.045v-3.75H244v3.75h-1.033v-8z" transform="translate(-39.427 -26.425)" style="fill:#2e2e2d"/>
            <path data-name="Path 15" d="m254.089 168.325-.832 2.517h-1.067l2.718-8h1.247l2.729 8h-1.1l-.854-2.517zm2.622-.807-.783-2.3c-.178-.522-.3-1-.416-1.459h-.023c-.12.474-.25.961-.4 1.448l-.784 2.314z" transform="translate(-40.924 -26.425)" style="fill:#2e2e2d"/>
            <path data-name="Path 16" d="M262.293 170.842v-8h1.128l2.563 4.046a22.415 22.415 0 0 1 1.436 2.6l.024-.012c-.095-1.068-.119-2.042-.119-3.287v-3.347h.973v8h-1.044l-2.539-4.059a25.228 25.228 0 0 1-1.5-2.67l-.036.012c.059 1.009.083 1.969.083 3.3v3.418z" transform="translate(-42.563 -26.425)" style="fill:#2e2e2d"/>
            <path data-name="Path 17" d="M278.322 170.469a7.464 7.464 0 0 1-2.456.439 3.755 3.755 0 0 1-4.107-4.035 4.011 4.011 0 0 1 4.331-4.129 4.927 4.927 0 0 1 1.994.369l-.25.842a4.138 4.138 0 0 0-1.768-.343 2.991 2.991 0 0 0-3.216 3.216 2.932 2.932 0 0 0 3.085 3.227 3.358 3.358 0 0 0 1.376-.214v-2.386h-1.625v-.83h2.635z" transform="translate(-44.1 -26.409)" style="fill:#2e2e2d"/>
            <path data-name="Path 18" d="M286.33 167.092h-3.109v2.883h3.465v.866h-4.5v-8h4.319v.866h-3.286v2.527h3.109z" transform="translate(-45.792 -26.425)" style="fill:#2e2e2d"/>
        </g>
    </g>
    <g data-name="Group 151">
        <g data-name="Group 150" style="clip-path:url(#tvbdqqblcd)" transform="translate(.012 39.545)">
            <path data-name="Rectangle 30" style="fill:url(#lvw3bepusa)" d="M0 0h98.437v95.568H0z"/>
        </g>
    </g>
    <g data-name="Group 153">
        <g data-name="Group 152" style="clip-path:url(#4qzhc00qbe)" transform="translate(85.532 83.204)">
            <path data-name="Rectangle 31" style="fill:url(#xgwfnqtxpf)" d="M0 0h45.729v46.048H0z"/>
        </g>
    </g>
    <g data-name="Group 155">
        <g data-name="Group 154" style="clip-path:url(#wj72lpahxg)" transform="translate(116.94 57.846)">
            <path data-name="Rectangle 32" transform="translate(-.031)" style="fill:url(#23wwkkvdxh)" d="M0 0h63.392v70.449H0z"/>
        </g>
    </g>
    <g data-name="Group 157">
        <g data-name="Group 156" style="clip-path:url(#6d0hpjckbi)" transform="translate(173.921 83.204)">
            <path data-name="Rectangle 33" style="fill:url(#p0r9z6lfhj)" d="M0 0h45.728v46.048H0z"/>
        </g>
    </g>
    <g data-name="Group 159">
        <g data-name="Group 158" style="clip-path:url(#5dozh23d8k)" transform="translate(212.195 57.846)">
            <path data-name="Rectangle 34" style="fill:url(#wtxxs0qikl)" d="M0 0h36.168v70.449H0z"/>
        </g>
    </g>
    <g data-name="Group 161">
        <g data-name="Group 160" style="clip-path:url(#kl8fyfkxbm)" transform="translate(193.406 29.052)">
            <path data-name="Rectangle 35" transform="rotate(-84.9 20.538 22.493)" style="fill:url(#9jniewybyb)" d="M0 0h44.164v35.686H0z"/>
        </g>
    </g>
    <g data-name="Group 163">
        <g data-name="Group 162" style="clip-path:url(#woopiecown)" transform="translate(183.456 55.594)">
            <path data-name="Rectangle 36" transform="rotate(-16.132 2.099 16.936)" style="fill:url(#hwn5hwj9co)" d="M0 0h31.985v23.5H0z"/>
        </g>
    </g>
    <g data-name="Group 165">
        <g data-name="Group 164" style="clip-path:url(#16wb11a2ip)" transform="translate(166.332 30.25)">
            <path data-name="Rectangle 37" transform="rotate(-6.757 1.629 27.548)" style="fill:url(#7zxljj8azq)" d="M0 0h48.757v32.844H0z"/>
        </g>
    </g>
    <g data-name="Group 167">
        <g data-name="Group 166" style="clip-path:url(#jm66s0oljr)" transform="translate(210.794 18.922)">
            <path data-name="Rectangle 38" style="fill:url(#hy0q2coaus)" d="M0 0h20.311v21.308H0z"/>
        </g>
    </g>
    <g data-name="Group 169">
        <g data-name="Group 168" style="clip-path:url(#1khg4p0qoc)">
            <path data-name="Path 28" d="M142.181 13.814c-.064-2.276-.761-3.935-2.078-4.936-1.3-.95-3.312-1.412-6.162-1.412a27.769 27.769 0 0 0-8.167 1.469l-.551 4.467.921-.4a23.351 23.351 0 0 1 3.752-1.269 14.688 14.688 0 0 1 3.421-.426 6.364 6.364 0 0 1 3.227.6 1.9 1.9 0 0 1 .913 1.707 1.972 1.972 0 0 1-.72 1.613 11.465 11.465 0 0 1-3.471 1.712l-4.955 1.8a9.233 9.233 0 0 0-4.092 2.6A6 6 0 0 0 123 25.4a5.731 5.731 0 0 0 2.279 4.572 7.694 7.694 0 0 0 1.91 1.064 11.614 11.614 0 0 0 3.11.641 9.593 9.593 0 0 0 6.8-2.026l-.158 1.547h5.139v-4.433l.1-11.16c.007-.148 0-1.79 0-1.79m-9.266 13.8a12.62 12.62 0 0 1-1.412.079 4.443 4.443 0 0 1-2.661-.668 2.206 2.206 0 0 1-.87-1.822 2.627 2.627 0 0 1 .583-1.837 5.994 5.994 0 0 1 2.434-1.445l4.744-1.789a11.485 11.485 0 0 0 1.587-.758l.143-.082-.183 6.848c0 .1-.842.478-.959.538a14.45 14.45 0 0 1-3.405.937" transform="translate(-19.96 -1.212)" style="fill:#00a0e5"/>
            <path data-name="Path 29" d="m116.029 25.847-.014-.119-.645.311a19.368 19.368 0 0 1-3.37 1.266 10.02 10.02 0 0 1-5.39.121 5.711 5.711 0 0 1-1.639-.792 5.443 5.443 0 0 1-1.219-1.167c-1.4-1.852-1.686-4.453-1.562-6.727a9.18 9.18 0 0 1 1.562-5.072 5.5 5.5 0 0 1 1.219-1.166 5.666 5.666 0 0 1 1.639-.792c2.458-.731 5.02-.137 7.366.674.785.271 1.67.617 2.655 1.055l.816-4.578a31.035 31.035 0 0 0-6.563-1.308 14.659 14.659 0 0 0-5.81.5 9.6 9.6 0 0 0-4.439 2.836c-2.207 2.521-2.862 6.246-2.677 9.538a13.946 13.946 0 0 0 2.552 7.673 9.605 9.605 0 0 0 6.574 3.4 20.586 20.586 0 0 0 7.509-.637 26.848 26.848 0 0 0 2.826-.907l.1-.037-.054-.092a9.926 9.926 0 0 1-1.433-3.976" transform="translate(-15.892 -1.212)" style="fill:#00a0e5"/>
            <path data-name="Path 30" d="M166.137 8.373a23.712 23.712 0 0 0-3.426-.659 26.737 26.737 0 0 0-4.11-.208c-2.946.059-5.031.559-6.375 1.525a6.07 6.07 0 0 0-2.179 4.921l-.017 1.78.005 11.117-.007 4.348h5.187l-.069-.812c-.084-.689-.189-2.627-.189-2.627q-.021-.516-.034-1.089l-.309-9.6a23.73 23.73 0 0 1 .071-2.943 3.232 3.232 0 0 1 1.032-1.837c2.64-2.217 7.276-.085 7.276-.085a2.562 2.562 0 0 1 .276-.675A11.007 11.007 0 0 1 164.6 9.74a10.879 10.879 0 0 1 1.538-1.367" transform="translate(-24.346 -1.217)" style="fill:#00a0e5"/>
            <path data-name="Path 31" d="M183.339 0c.028.417.132 2.844.147 6.765-1.029-.184-1.868-.328-2.905-.424a15.611 15.611 0 0 0-6 .5A9.968 9.968 0 0 0 170 9.677c-2.279 2.522-2.955 6.247-2.764 9.538a13.653 13.653 0 0 0 2.631 7.669 10.027 10.027 0 0 0 6.788 3.4c.122.013.87.068 1.124.085.644.043 1.29.063 1.935.042a21.561 21.561 0 0 0 2.584-.235c.315-.048.638-.111.963-.191a8.816 8.816 0 0 0 .891-.278c.1-.037.685-.276.837-.351a5.344 5.344 0 0 0 1.958-1.488 3.321 3.321 0 0 0 .332-.529 3.019 3.019 0 0 0 .317-1.355V0zm-7.17 26.214a5.96 5.96 0 0 1-1.694-.793 5.493 5.493 0 0 1-1.257-1.166c-1.448-1.852-1.742-4.453-1.613-6.727a8.97 8.97 0 0 1 1.612-5.072 5.592 5.592 0 0 1 1.259-1.166 5.933 5.933 0 0 1 1.694-.792c2.446-.706 4.824-.005 7.175.761l.018 13.234c0 .785-.916 1.249-1.491 1.506a9.466 9.466 0 0 1-2.417.489 9.061 9.061 0 0 1-3.286-.273" transform="translate(-27.133)" style="fill:#00a0e5"/>
            <path data-name="Path 32" d="M49.532 18.826a18.1 18.1 0 0 0-4.659-2.491c-2.135-.882-3.978-1.644-3.978-3.056a2 2 0 0 1 .813-1.593 3.54 3.54 0 0 1 2.174-.669 8.122 8.122 0 0 1 4.818 1.907l.519.473 2.366-4.436-.271-.287a10.452 10.452 0 0 0-7.4-2.681 9.084 9.084 0 0 0-5.973 2.074 6.89 6.89 0 0 0-2.435 5.277 6.1 6.1 0 0 0 2.362 4.927 18.63 18.63 0 0 0 4.609 2.522c2.2.947 4.1 1.765 4.1 3.221 0 1.109-.751 2.295-2.856 2.295a8.954 8.954 0 0 1-5.467-2.323l-.453-.441-2.94 4.074.294.328a9.831 9.831 0 0 0 2.221 1.71 12.435 12.435 0 0 0 6.279 1.676 8.624 8.624 0 0 0 6.074-2.185 7.119 7.119 0 0 0 2.2-5.232 6.263 6.263 0 0 0-2.4-5.09" transform="translate(-5.657 -.973)" style="fill:#18175a"/>
            <path data-name="Rectangle 39" transform="translate(68.735 5.387)" style="fill:#18175a" d="M0 0h5.511v24.608H0z"/>
            <path data-name="Path 33" d="M74.687 19.98a5.614 5.614 0 0 0-2.181-1.994 6.2 6.2 0 0 0 2.247-4.935 6.077 6.077 0 0 0-2.247-4.921 8.774 8.774 0 0 0-5.564-1.7h-8.968v24.606h9.067a9.909 9.909 0 0 0 6.016-1.759 6.736 6.736 0 0 0 2.654-5.622 6.822 6.822 0 0 0-1.023-3.675m-7.317 6.45h-4.195V11.039h3.7a2.345 2.345 0 0 1 2.609 2.542 2.217 2.217 0 0 1-2.542 2.46h-1.277v4.528h1.7a3.04 3.04 0 0 1 2.245.844 2.58 2.58 0 0 1 .792 1.98 2.818 2.818 0 0 1-3.038 3.038" transform="translate(-9.408 -1.043)" style="fill:#18175a"/>
            <path data-name="Path 34" d="M12.722 5.9a12.753 12.753 0 0 0-1.3 25.437v-9.26a3.664 3.664 0 1 1 2.6 0v9.263a12.753 12.753 0 0 0-1.3-25.44" transform="translate(0 -.958)" style="fill:#00a0e5"/>
        </g>
    </g>
</svg>
